<?xml version="1.0" standalone="no"?>
<!DOCTYPE svg PUBLIC "-//W3C//DTD SVG 20010904//EN"
 "http://www.w3.org/TR/2001/REC-SVG-20010904/DTD/svg10.dtd">
<svg version="1.0" xmlns="http://www.w3.org/2000/svg"
 width="500.000000pt" height="500.000000pt" viewBox="0 0 500.000000 500.000000"
 preserveAspectRatio="xMidYMid meet">
<metadata>
Created by potrace 1.16, written by Peter Selinger 2001-2019
</metadata>
<g transform="translate(0.000000,500.000000) scale(0.100000,-0.100000)"
fill="#ffffff" stroke="none">
<path d="M2808 4841 c-138 -45 -203 -201 -137 -332 21 -42 70 -86 117 -106
l32 -13 0 -346 0 -345 -22 7 c-69 22 -134 35 -223 45 l-100 12 3 459 c4 426 3
461 -14 479 -16 18 -32 19 -244 19 -203 0 -229 -2 -243 -17 -8 -10 -48 -130
-87 -268 -40 -137 -77 -255 -84 -261 -6 -6 -48 -26 -93 -44 l-81 -33 -239 132
c-131 72 -245 131 -253 131 -24 0 -600 -582 -600 -606 0 -11 58 -127 130 -255
l129 -235 -37 -91 -37 -91 -250 -72 c-137 -39 -260 -78 -272 -86 l-23 -14 0
-413 c0 -226 4 -418 9 -426 5 -8 127 -48 271 -90 l263 -76 38 -90 39 -89 -130
-236 c-72 -130 -130 -247 -130 -261 0 -33 565 -599 598 -599 13 0 130 59 260
131 l236 131 45 -21 c26 -11 66 -29 91 -39 44 -18 47 -22 64 -83 65 -237 132
-453 144 -465 11 -11 60 -14 242 -14 194 0 231 2 244 16 14 14 16 71 16 478
l0 463 79 7 c44 3 120 17 170 29 l91 23 0 -338 0 -338 -32 -13 c-176 -74 -193
-319 -29 -415 38 -22 58 -27 116 -27 58 0 78 5 116 27 162 95 148 341 -23 413
l-38 15 0 358 0 358 83 43 c46 24 119 69 163 101 l79 58 5 -337 c3 -185 9
-342 13 -349 6 -9 47 -12 147 -12 l138 0 7 -32 c10 -43 92 -124 141 -137 160
-45 303 59 304 220 1 207 -247 308 -391 159 -26 -26 -50 -62 -54 -79 l-7 -31
-93 0 -93 0 -4 353 -4 352 49 60 c27 33 65 86 85 118 33 54 38 58 65 53 16 -3
191 -6 388 -6 l359 0 0 -134 0 -133 -45 -18 c-99 -37 -149 -109 -149 -215 0
-77 25 -133 79 -178 133 -109 343 -36 374 131 19 102 -24 197 -109 245 l-50
27 0 176 c0 139 -3 179 -14 188 -10 8 -131 14 -411 18 -356 6 -396 8 -391 22
2 9 16 50 31 91 32 91 65 253 65 320 l0 50 339 0 339 0 6 -31 c9 -44 90 -124
141 -138 161 -44 305 60 305 221 -1 206 -246 305 -392 158 -29 -28 -50 -60
-54 -79 l-6 -31 -339 0 -339 0 0 46 c0 88 -52 296 -104 415 -6 14 32 16 394
22 293 4 405 8 415 17 12 10 15 46 15 189 l0 176 47 25 c86 45 131 145 112
248 -31 166 -241 239 -374 130 -54 -45 -79 -101 -79 -178 0 -106 60 -191 155
-219 l39 -12 0 -134 0 -135 -334 0 c-183 0 -360 -3 -392 -6 l-59 -5 -37 58
c-20 33 -56 84 -80 114 l-43 54 3 358 4 357 93 0 93 0 7 -32 c10 -43 92 -124
141 -137 161 -45 304 59 304 220 0 157 -143 261 -300 219 -54 -14 -134 -91
-145 -139 l-7 -31 -138 0 c-127 0 -140 -2 -150 -19 -6 -13 -10 -143 -10 -355
0 -185 -2 -336 -4 -336 -3 0 -38 25 -78 55 -40 31 -112 76 -160 101 l-88 45 0
364 0 365 38 15 c169 71 186 317 27 410 -49 29 -139 41 -187 26z m136 -122
c56 -44 70 -110 36 -167 -20 -32 -71 -62 -107 -62 -56 0 -123 72 -123 131 0
33 38 90 70 106 38 19 94 16 124 -8z m-574 -533 l0 -423 -92 -12 c-297 -38
-532 -152 -744 -361 -324 -320 -448 -784 -328 -1230 127 -475 518 -830 1008
-915 49 -8 105 -15 125 -15 l36 0 4 -425 3 -425 -165 0 -166 0 -20 68 c-11 37
-38 132 -61 212 -72 253 -64 236 -125 259 -30 11 -84 34 -121 51 -37 16 -79
30 -93 30 -14 0 -126 -56 -251 -125 l-225 -124 -248 248 -248 247 125 227 c69
125 126 238 126 252 0 14 -11 47 -24 73 -12 26 -35 80 -50 119 l-28 73 -81 25
c-45 14 -164 48 -265 77 l-182 52 2 350 3 350 255 74 c140 40 260 78 266 83 6
5 16 27 23 50 7 22 28 75 47 116 19 42 34 85 34 98 0 12 -57 124 -126 250
l-126 228 248 247 249 248 230 -129 c143 -80 238 -128 250 -125 43 9 258 103
265 117 4 8 38 118 75 244 36 127 68 238 71 248 5 15 22 17 165 17 l159 0 0
-424z m1497 22 c13 -12 28 -39 34 -59 22 -72 -42 -152 -119 -151 -70 1 -122
53 -122 122 0 109 127 163 207 88z m565 -485 c86 -83 -1 -233 -118 -201 -121
32 -121 204 0 236 41 11 83 -1 118 -35z m-1795 -89 c565 -100 982 -627 950
-1199 -17 -295 -132 -552 -341 -760 -171 -170 -377 -279 -616 -326 -95 -19
-328 -16 -425 5 -242 53 -417 147 -591 320 -142 142 -228 279 -288 457 -65
195 -74 457 -21 654 87 329 314 604 620 751 231 112 458 143 712 98z m2040
-1046 c90 -85 6 -234 -117 -207 -86 19 -122 133 -62 200 46 52 128 55 179 7z
m-242 -1148 c25 -26 30 -38 30 -80 0 -42 -5 -54 -30 -80 -55 -54 -126 -56
-178 -4 -65 65 -34 178 57 202 42 12 84 -2 121 -38z m-568 -472 c13 -12 28
-39 34 -59 22 -72 -42 -152 -119 -151 -70 1 -122 53 -122 122 0 109 127 163
207 88z m-942 -472 c64 -27 92 -104 60 -166 -49 -94 -171 -94 -220 0 -20 38
-19 68 3 109 19 35 72 71 105 71 10 0 33 -6 52 -14z"/>
<path d="M2374 3206 c-44 -19 -100 -78 -114 -120 l-12 -36 -207 0 c-221 0
-231 -2 -231 -50 0 -48 10 -50 230 -50 l207 0 18 -39 c51 -113 190 -164 302
-110 168 81 162 332 -9 403 -46 19 -142 20 -184 2z m139 -100 c81 -33 93 -140
23 -197 -90 -73 -226 37 -173 141 15 29 72 70 99 70 10 0 33 -6 51 -14z"/>
<path d="M2961 2700 c-51 -12 -112 -60 -135 -107 l-21 -42 -206 -1 c-186 0
-207 -2 -222 -18 -23 -26 -21 -58 5 -76 18 -13 57 -16 218 -16 l195 0 19 -45
c69 -168 313 -178 398 -16 66 125 5 277 -126 316 -54 16 -74 17 -125 5z m135
-131 c102 -95 -22 -253 -142 -180 -66 40 -70 126 -7 181 32 28 41 32 80 27 27
-3 54 -14 69 -28z"/>
<path d="M2526 2176 c-49 -18 -112 -80 -127 -123 l-11 -33 -188 0 c-204 0
-220 -4 -220 -55 0 -48 28 -55 226 -55 l182 0 13 -31 c41 -101 151 -155 261
-129 69 17 138 84 157 153 30 105 -17 214 -113 264 -42 22 -133 26 -180 9z
m154 -123 c59 -53 48 -153 -20 -188 -102 -53 -208 53 -155 155 33 63 123 80
175 33z"/>
</g>
</svg>
